<svg xmlns="http://www.w3.org/2000/svg" viewBox="0 0 614.18 577.7"><title>kolibri</title><path d="M760.2,351.4c-2,2.48-4.89,3.68-7.68,4.86q-13.28,5.64-26.66,11a88,88,0,0,1-25.32,6.07c-8.67.76-17.37,1.19-26,2.06-7.39.74-14.74,2-22.13,2.83a116.42,116.42,0,0,0-22.71,5.41,56.6,56.6,0,0,0-11.81,5.48,124.28,124.28,0,0,0-17.46,13c-.76.68-1.39,1.51-2.67,2.9,4.47,0,8.07.13,11.67.09,14.16-.16,28.32-.44,42.49-.52a182.33,182.33,0,0,0,35.1-4c7.11-1.44,14.24-2.78,21.31-4.38,4.59-1,9.15-2.28,13.62-3.74a544,544,0,0,0,65.77-25.81q9.57-4.58,19.23-9a56.36,56.36,0,0,1,5.58-1.9l-.09-.06c-.28.42-.47,1-.86,1.23-5.13,3.1-10.09,6.56-15.48,9.11-12.78,6.06-25.65,12-38.71,17.4-11,4.61-22.28,8.84-33.65,12.55a269.5,269.5,0,0,1-35.32,9c-11.26,2.06-22.61,3.33-33.95,4.68-6.11.73-12.33.6-18.5.65-14.71.12-29.43.91-44.13-.14-9.23-.65-18.44-1.7-27.66-2.59a181.64,181.64,0,0,0-40.77.54c-8.59,1.12-16.38,4.67-23.9,8.77-14,7.63-24.87,18.72-34.13,31.52-1,1.31-2,2.56-3,3.83-.06.08-.28,0-.85.09.53-3.2,2.34-5.71,3.74-8.34a68.08,68.08,0,0,1,4.52-7.45,84.75,84.75,0,0,1,5.82-7.17,83.27,83.27,0,0,1,6.12-6.2c2.28-2.08,4.67-4.05,7.13-5.92,2.28-1.73,4.73-3.26,7.36-5.05-.85-3.55-1.27-7-2.5-10.18-4.16-10.64-8.35-21.3-13-31.71-3.76-8.32-9.44-15.48-15.58-22.23-1.08-1.2-2.18-2.39-3.46-3.79,5.07.61,6.28,1.47,18.43,12.79.18,0,.4,0,.52-.13a.6.6,0,0,0,.18-.46c0-2.54.16-5.09-.05-7.61a59.68,59.68,0,0,0-8.64-27.29c-7.47-11.87-17.16-21.18-31.55-24.09a60.82,60.82,0,0,0-22.74-.66,38.2,38.2,0,0,0-12.6,5A133.08,133.08,0,0,0,393,310c-6.55,4.89-12.94,10-19.38,15-.69.54-1.3,1.17-2,1.81,1.53,1,3.59,0,4.58,1.74-.56,1.8-2.13,1.89-3.42,2.37-10.58,3.91-21.48,6.72-32.38,9.52q-38.25,9.81-76.5,19.57a18,18,0,0,0-2.84,1.28l-2.9.25.15.69,2.63-1.08c3.78-.41,7.59-.61,11.33-1.26,23.79-4.1,47.56-8.38,71.37-12.42,12.35-2.1,24.76-3.83,37.16-5.69,1.35-.2,2.83-.7,4,.51.19,1.63-1.15,1.75-2.06,2-4,1.13-8,2.15-12,3.17-.5,1.38.46,1.78,1.17,2.25,3.18,2.1,6.37,4.19,9.59,6.22,11,6.94,23.1,9.52,35.93,8.44,5.59-.47,11.14-1.58,16.67-2.55a75.41,75.41,0,0,1,11-1.61c-5.81,5.81-19.26,9.32-37.54,9.93,2.51,3.44,5.13,6.58,7.24,10a96.62,96.62,0,0,1,5.67,11.16,35.25,35.25,0,0,1,3.17,12.06c.28,4.16.72,8.34.61,12.49s-.47,8.27-2.29,12.18c-1.48-.43-1.12-1.44-1.1-2.18.08-3.45.25-6.89.37-10.34.42-12.08-3.76-22.78-9.81-33A37.29,37.29,0,0,0,402.13,372c-3.19-2.47-6.45-4.54-10.53-5.38-5.25-1.08-9.69-4-14-7.13-2.5-1.82-4.85-3.84-7.43-5.52a68.62,68.62,0,0,0-7.17-3.86,9.39,9.39,0,0,0-5.84-.61q-44.61,7.37-89.24,14.6c-17,2.74-34.1,5.2-51.14,7.88-4.65.74-9.25,1.85-13.88,2.74a9.2,9.2,0,0,1-4.44-.1,11.18,11.18,0,0,1,2.47-1.5c7.31-2.17,14.62-4.34,22-6.34,44.15-12,88.24-24.22,132.66-35.18a25.46,25.46,0,0,0,4.2-1.13,9.2,9.2,0,0,0,3.48-2.38c5.29-6.78,11.66-12.46,18.09-18.08a147.79,147.79,0,0,1,19.22-14.29,47.08,47.08,0,0,1,22.07-7.07,69.19,69.19,0,0,1,25.87,2.82c10.34,3.32,18.46,9.86,25.13,18.36,5.36,6.83,8.68,14.67,11.61,22.7a95.92,95.92,0,0,1,2.75,10,37.29,37.29,0,0,1,1,11.35c-.27,4.71-.24,9.44-.4,14.16a19.33,19.33,0,0,0,1.71,8.47q2.81,6.5,5.4,13.09a67.27,67.27,0,0,1,4.59,16.77c.1.87.36,1.73.64,3.07a13,13,0,0,0,2.74-2,245.44,245.44,0,0,1,17.7-20.69,127.8,127.8,0,0,1,22.82-19.3C562.45,355.08,582,345.1,602,335.91c12.42-5.71,25.34-9.92,38.17-14.47a21.58,21.58,0,0,1,2.61-.75c12.09-2.63,23.81-6.54,35.47-10.54,9.6-3.28,19-7.16,28.37-11.09,8-3.36,15.9-7.11,23.81-10.79,11.35-5.27,22.66-10.64,34-15.94,1.59-.75,3.26-1.33,5.81-2.35a9.11,9.11,0,0,1-4.42,4.18c-7.51,4-15,8.23-22.63,12-11.09,5.42-22.32,10.55-33.54,15.69-15.2,7-30.63,13.32-46.68,18.08-4,1.18-8,2.23-12.11,3.18a188.3,188.3,0,0,0-43.73,16.4c-2.09,1.08-4.3,1.93-6.42,3-10.42,5.16-20.92,10.15-31.18,15.6-5.27,2.8-10.09,6.45-15.1,9.73-1.51,1-2.92,2.17-4.49,3.09-7.41,4.36-13.9,9.92-20.17,15.7-5.61,5.16-10.79,10.79-16.13,16.24a9.39,9.39,0,0,0-1,1.92c6.08-.66,11.73-1.5,17.4-1.83s11.59-.18,17.25-.23c1.48-1.77,2.78-3.27,4-4.83,6.89-8.67,15.76-15,25-20.8a239.72,239.72,0,0,1,45.57-21.82,215.18,215.18,0,0,1,40-10.16c6.62-1.06,13.36-1.46,20-2.34a112,112,0,0,0,13.4-2.31c10.71-2.75,21.49-5.4,32-8.87a165.83,165.83,0,0,0,29.23-13.23A53.7,53.7,0,0,1,769,312.92a16.31,16.31,0,0,1-1.76,1.58c-2.57,1.7-5.1,3.5-7.79,5-17.11,9.36-34.82,17.07-54,21.39a270.66,270.66,0,0,1-31.61,5.27,191.83,191.83,0,0,0-57.27,14.71c-4.16,1.82-8.33,3.59-12.51,5.38a196.48,196.48,0,0,0-25.46,13.56,109.94,109.94,0,0,0-20.76,16.68c-1.72,1.74-4,3.11-5.09,5.91,1.8.09,3.21.24,4.62.23,6.39-.05,12.66,1,19,1.74,5.39.65,10.85.7,16.56,1,1.19-1.18,2.48-2.44,3.74-3.71,10.91-11.05,23.46-19.29,38.65-23.37a159,159,0,0,1,30-5.07q15.75-1.12,31.49-2.42c3.61-.3,7.22-.76,10.8-1.32a70.78,70.78,0,0,0,15.76-4.18Q738.66,359,754.11,353c2-.78,3.9-2.08,6.23-1.44Z" transform="translate(-198.49 -269.98)"/><path d="M710,824.65a68.7,68.7,0,0,1-20.29-12.45c-7.4-6.43-14.64-13.08-21.54-20a225.89,225.89,0,0,1-40.47-56.52,174.38,174.38,0,0,1-10.44-25.13A290.87,290.87,0,0,1,607,671.58c-2.3-12.69-3.82-25.49-4.95-38.33-.79-9-1.2-18.13-2.21-27.14a176.17,176.17,0,0,0-8.37-38.23c-2.93-8.4-5.56-16.92-9-25.11s-7.68-16-11.68-24a10.71,10.71,0,0,0-2.87-3.18c-1.4-1.15-3-2.05-4.5-3.06-13.13-8.8-26.3-17.53-39.35-26.44a62.86,62.86,0,0,1-20.61-23.55c-.46-.89-1.28-1.73-.63-3.24a12.7,12.7,0,0,1,1.54,1.37c1.73,2.1,3.37,4.28,5.12,6.37a94.06,94.06,0,0,0,24.08,20.24c11.85,7.07,23.66,14.24,35.21,21.79A220.07,220.07,0,0,1,590.26,525c13.25,11.17,28.21,19.09,44.41,24.9,3.25,1.17,6.54,2.2,9.79,3.33,2.19.76,4.35,1.59,7.5,2.74a20.66,20.66,0,0,1-8.43-.22c-19.34-3.86-37.11-11.3-52.93-23.2-2.6-2-5.32-3.76-8-5.64l-.21-.09.33,0a14,14,0,0,0,.86,3.54c7.94,14.85,12.35,31,16.58,47.09a208,208,0,0,1,6.65,42.93,377.12,377.12,0,0,0,5.61,47,266.49,266.49,0,0,0,10.24,41.13c5.12,14.79,12.28,28.64,20.35,42,8.66,14.38,19.29,27.24,31,39.21,9.12,9.35,18.55,18.39,27.92,27.48,2.08,2,4.53,3.63,6.72,5.53a8,8,0,0,1,1.27,2.12Z" transform="translate(-198.49 -269.98)"/><path d="M451.36,390.43a24.41,24.41,0,0,1-.47,3.66c-2.3,8.09-6.49,15.37-9.9,23-3,6.79-6.31,13.48-9.29,20.3-8.09,18.54-9.35,37.53-3.3,56.89,2,6.23,3.87,12.5,6.28,18.57,4.32,10.87,10.82,20.54,17.66,30A188.3,188.3,0,0,0,497.81,587c8.81,6.12,17,13,25.22,19.91,1.36,1.16,2.54,2.54,4.37,4.37-4.26-.48-7.49-1.91-10.71-3.22C499,600.91,483.63,590,469.7,577a247,247,0,0,1-26-28.59,100.18,100.18,0,0,1-8.59-13.23c-8.29-15-15.12-30.62-18.55-47.52-2.18-10.77-2.56-21.5-.12-32.41,3.79-16.91,10.26-32.49,20.64-46.42,1.84-2.47,3.47-5.1,5.19-7.66a52.58,52.58,0,0,1,9.22-10.69Z" transform="translate(-198.49 -269.98)"/><path d="M504.19,561.61c5.1,3.25,9.08,7.71,13.15,12.08C527.73,584.85,535.1,598,542,611.41a178,178,0,0,1,15.9,44.48c2.17,10.12,4.55,20.19,6.59,30.33,1,5,1.6,10,2.12,15.1,1,9.93,2,19.87,2.79,29.82.5,6.52.74,13.06.83,19.59a172.38,172.38,0,0,1-3.3,37.92c-.7,3.32-1.21,6.79-3.54,10.15.67-7.28,1.37-14,1.91-20.8a227.44,227.44,0,0,0,0-37.55c-.84-9.77-1.58-19.55-2.48-29.32-1-10.86-3-21.57-4.87-32.3-2.81-16-7.21-31.49-11.82-47-2-6.56-5-12.83-8-19-8-16.62-18.83-31.43-30.64-45.53-1.37-1.65-2.49-3.51-3.73-5.27Z" transform="translate(-198.49 -269.98)"/><path d="M676.51,845c-1.32.65-2-.37-2.74-1.1-3.87-4.09-7.93-8-11.46-12.41-14-17.28-26.3-35.64-36.08-55.66-5.43-11.1-10.75-22.22-15.54-33.62a306.57,306.57,0,0,1-10.8-31.38,363.39,363.39,0,0,1-13.2-68.37A124,124,0,0,0,575,600.74c-3.61-7.53-7.31-15-10.95-22.53a13.17,13.17,0,0,1-1.57-5.14,24.92,24.92,0,0,1,2.2,2.63,213.91,213.91,0,0,1,17.67,33.13,108.87,108.87,0,0,1,7.73,31.08c1.38,13.73,2.65,27.49,5.52,41,.9,4.26,2,8.48,3,12.7a327.93,327.93,0,0,0,24.14,65.83c4.86,9.95,9.75,19.91,15.08,29.6,10.63,19.32,23.42,37.19,37.19,54.37.46.56.88,1.15,1.32,1.72Z" transform="translate(-198.49 -269.98)"/><path d="M534.66,570.4c9.44,12.83,17.33,25.6,22.46,39.89,7.86,21.88,14.69,44.1,20.68,66.57,1.58,6,2.77,12,4.26,18,3.85,15.51,8.09,30.92,11.58,46.51,3.13,14,5.63,28.12,8.09,42.25,1.22,7,1.69,14.06,2.56,21.09.49,4,1.14,7.91,1.66,11.87a16.73,16.73,0,0,1-.07,5.55,25.49,25.49,0,0,1-1.4-3.66c-1.56-7.27-3.27-14.52-4.49-21.86-3.12-18.62-6-37.28-10.47-55.65-3.92-16-7.51-32.17-11.53-48.19-2.86-11.44-6.08-22.79-9.33-34.13-2.76-9.59-5.7-19.14-8.73-28.65a278.85,278.85,0,0,0-21.83-50.4c-1.32-2.37-2.49-4.83-3.69-7.27C534.29,572.08,534.48,571.66,534.66,570.4Z" transform="translate(-198.49 -269.98)"/><path d="M792.12,397.34c-9.12,4.47-18.12,9.19-27.37,13.37-17.7,8-35.89,14.82-54.24,21.17a209.1,209.1,0,0,1-38,9.45c-12.91,1.91-25.95,3.21-39.06,2.67-6.89-.29-13.79-.45-20.66-1.06-6.5-.57-13-1.54-19.43-2.53-5.92-.9-11.83-1.91-17.68-3.16-7.56-1.6-15.18-1.19-22.79-1a97.67,97.67,0,0,0-23.68,3.2,5.82,5.82,0,0,1-2.71-.09,29.94,29.94,0,0,1,10.42-3.89,181.63,181.63,0,0,1,32.53-2.39,113.67,113.67,0,0,1,19.43,2.3c9.44,1.87,18.89,3.56,28.5,3.86,11.43.35,22.88.73,34.31.39a169.63,169.63,0,0,0,33.38-4.43,341.85,341.85,0,0,0,54.38-17.33c10.7-4.49,21.52-8.7,32.27-13.1,4.87-2,9.65-4.17,14.52-6.14,1.81-.74,3.61-1.88,5.74-1.12Z" transform="translate(-198.49 -269.98)"/><path d="M737.17,458.09a12.94,12.94,0,0,1-2.63,1.67c-11.8,4.16-23.68,8.15-35.91,10.82a142.2,142.2,0,0,1-20.47,2.74,258.58,258.58,0,0,1-37.55.07,182.74,182.74,0,0,1-26.92-3.74c-11.49-2.63-23-5.21-34.52-7.66a74.83,74.83,0,0,0-10.24-1.29,150.93,150.93,0,0,0-29.9.68,3.67,3.67,0,0,1-2.71-.63c3.69-.78,7.34-1.82,11.06-2.3a112.53,112.53,0,0,1,40,1.6c11.31,2.59,22.65,5.07,34,7.35a162.13,162.13,0,0,0,32.45,3.24c5.45,0,10.89.17,16.33.1,4-.05,8-.21,11.94-.62a136.42,136.42,0,0,0,23.51-4.24c8.89-2.54,17.85-4.85,26.8-7.16a30.64,30.64,0,0,1,4.83-.49Z" transform="translate(-198.49 -269.98)"/><path d="M392.68,331.26a14,14,0,0,1,1.61-1.79,75.14,75.14,0,0,1,14.79-9,14.64,14.64,0,0,1,7.34-1.54,11.69,11.69,0,0,1,10.41,14.32,5,5,0,0,1-3.44,3.8,23.82,23.82,0,0,1-12.83.91C404.31,337,398.55,334.33,392.68,331.26Z" transform="translate(-198.49 -269.98)"/><path d="M666.51,513.44a3.11,3.11,0,0,1-1,.3c-10.67-.81-21.39-1.2-32-2.63-6-.81-11.89-3.17-17.74-5.08-11.92-3.89-23.26-9.17-34.46-14.76a169.56,169.56,0,0,0-22.67-9.13,22.77,22.77,0,0,1,4.7.28A141.38,141.38,0,0,1,578.42,487c5.89,2.31,11.51,5.31,17.3,7.91,10.59,4.75,21.26,9.35,32.52,12.25a188.84,188.84,0,0,0,19.27,3.37c6.25.91,12.55,1.54,18.82,2.29Z" transform="translate(-198.49 -269.98)"/><path d="M737.3,458.23c1.14-.75,1.14-.75,3.15-.14h-3.28Z" transform="translate(-198.49 -269.98)"/><polygon points="544.42 186.72 544.03 186.57 544.45 186.49 544.42 186.72"/><path d="M712.42,825.33c-.9.12-1.84.4-2.41-.68l-.11.13,2.53.71Z" transform="translate(-198.49 -269.98)"/><polygon points="561.85 81.54 561.96 81.11 561.71 81.42 561.85 81.54"/><polygon points="614.01 85.78 614.18 85.6 613.92 85.72 614.01 85.78"/><polygon points="253 120.54 253.18 120.48 252.87 120.45 253 120.54"/><path d="M792,397.48l.12-.14Z" transform="translate(-198.49 -269.98)"/><path d="M503,560.61l-.59-.35c.11,0,.27,0,.31,0a1.4,1.4,0,0,1,.15.42Z" transform="translate(-198.49 -269.98)"/><path d="M503.77,562c-.25-.47-.5-.95-.76-1.42l-.13.12,1.31.88Z" transform="translate(-198.49 -269.98)"/><polygon points="513.94 555.51 513.94 555.77 513.93 555.35 513.94 555.51"/><path d="M677.59,846c-.81.15-1.21-.15-1.08-1l-.12.13,1.13,1Z" transform="translate(-198.49 -269.98)"/><path d="M678.52,847.26l-.93-1.23-.07.13,1.11,1.23Z" transform="translate(-198.49 -269.98)"/><path d="M678.63,847.39l-.16.29c0-.14,0-.28,0-.42Z" transform="translate(-198.49 -269.98)"/></svg>